<?xml version="1.0" encoding="UTF-8"?>
<svg width="56px" height="56px" viewBox="0 0 56 56" version="1.1" xmlns="http://www.w3.org/2000/svg" xmlns:xlink="http://www.w3.org/1999/xlink">
   <!-- Generator: Sketch 55.1 (78136) - https://sketchapp.com -->
   <title>Brand / Logo mark White</title>
   <desc>Created with Sketch.</desc>
   <g id="Brand-/-Logo-mark-White" stroke="none" stroke-width="1" fill="none" fill-rule="evenodd">
       <g id="Group" transform="translate(27.500000, 27.500000) scale(-1, 1) rotate(-180.000000) translate(-27.500000, -27.500000) translate(11.000000, 10.000000)" fill="#FFFFFF" fill-rule="nonzero">
           <path d="M0.0123572365,26.8258893 C0.0247144729,18.4712875 0.0247144729,18.5049384 0.145197529,17.4250503 C0.988578918,9.84441919 6.05504587,3.34061708 13.2438682,0.605716284 C13.7288897,0.422165895 14.7051114,0.0948343676 14.7730762,0.0948343676 C14.7885227,0.0948343676 14.80088,0.829035923 14.80088,1.96092999 L14.80088,3.82702561 L14.7329152,3.85761734 C14.6927542,3.87291321 14.4826811,3.94939254 14.2602509,4.02893104 C12.4962554,4.64688401 10.8527429,5.57993182 9.33280285,6.8250153 C8.86322786,7.21047111 7.71709418,8.339306 7.33710916,8.79206363 C5.83570492,10.5908574 4.78225051,12.5456691 4.15821007,14.6870903 C3.77513574,16.0117123 3.58359858,17.1772572 3.5249017,18.5967136 C3.50945516,18.9791102 3.49400861,21.9862774 3.49400861,25.2810069 L3.49400861,31.2678088 L9.1474443,31.2678088 L14.80088,31.2678088 L14.80088,33.1339044 L14.80088,35 L7.40198465,35 L0,35 L0.0123572365,26.8258893 Z" id="Path"></path>
           <path d="M18.2300131,33.1339044 L18.2300131,31.2678088 L23.8680022,31.2678088 L29.5059914,31.2678088 L29.5059914,24.8527227 C29.5059914,20.8023774 29.4936342,18.2755004 29.4750983,18.0062932 C29.1198277,13.1575037 26.6730949,8.81347784 22.706422,5.98986103 C21.5046808,5.13329254 20.0341696,4.38379512 18.5976409,3.89126825 L18.2454597,3.76890132 L18.2361917,1.88445066 L18.2300131,0 L18.2979779,0.0183550389 C18.3381389,0.0275325583 18.6069088,0.113189407 18.8942146,0.208023774 C21.4645198,1.0370597 23.9699494,2.46263439 26.0181614,4.25836902 C26.4692005,4.65300236 27.2847781,5.45450573 27.6956562,5.90726335 C30.4389627,8.92666725 32.2153155,12.6772135 32.7930163,16.6755528 C32.9907321,18.0399441 32.9783748,17.3638668 32.9876428,26.5964514 L33,35 L25.6134619,35 L18.2300131,35 L18.2300131,33.1339044 Z" id="Path"></path>
           <path d="M6.97565999,27.8201206 C6.94167759,27.7864697 6.95094552,18.6364828 6.98492792,18.1592518 C7.19500094,15.3233983 8.34731324,12.7506337 10.3059352,10.7468753 C11.2914248,9.73734813 12.3016289,9.0000874 13.5342632,8.39131195 C14.4332522,7.94467267 15.1098109,7.69687964 16.0520502,7.46438248 C16.6359296,7.31754217 16.6637334,7.32060135 17.3186669,7.49803339 C21.1123385,8.53815226 24.1429508,11.3770649 25.4219247,15.0847828 C25.7154091,15.9413513 25.8976783,16.7428546 26.0058042,17.6911983 C26.0552331,18.1194826 26.0614117,18.5722402 26.0614117,22.9927454 L26.0614117,27.826239 L16.5278038,27.8354165 C11.2852462,27.8384757 6.98492792,27.8323573 6.97565999,27.8201206 Z M17.3341135,23.6994144 C18.5142295,23.5036273 19.4688261,22.9988637 20.2967609,22.1331177 C21.8043438,20.5576436 22.1348998,18.1745477 21.1154278,16.2166769 C20.3987081,14.8369898 19.0733945,13.8488768 17.5256506,13.5368412 C15.1963116,13.0687877 12.8268115,14.2526877 11.8135181,16.3941089 C10.9268864,18.2602045 11.2512638,20.4995193 12.6290957,22.0352242 C13.4786557,22.9835679 14.6773076,23.5954025 15.9624602,23.7422428 C16.2806591,23.7789529 17.0004681,23.7575387 17.3341135,23.6994144 Z" id="Shape"></path>
       </g>
   </g>
</svg>