<?xml version="1.0" encoding="UTF-8"?>
<svg width="122px" height="56px" viewBox="0 0 122 56" version="1.1" xmlns="http://www.w3.org/2000/svg" xmlns:xlink="http://www.w3.org/1999/xlink">
    <!-- Generator: Sketch 55.1 (78136) - https://sketchapp.com -->
    <title>Brand / Logo</title>
    <desc>Created with Sketch.</desc>
    <g id="Brand-/-Logo" stroke="none" stroke-width="1" fill="black" fill-rule="evenodd">
        <g id="Group" transform="translate(18.728571, 26.500000) scale(-1, 1) rotate(-180.000000) translate(-18.728571, -26.500000) translate(6.000000, 13.000000)" fill="black" fill-rule="nonzero">
            <path d="M0.00953272528,20.6942575 C0.0190654506,14.2492789 0.0190654506,14.2752382 0.112009522,13.4421816 C0.762618022,7.59426624 4.67103539,2.57704746 10.2166983,0.467266847 C10.5908578,0.325670833 11.3439431,0.0731579407 11.3963731,0.0731579407 C11.408289,0.0731579407 11.4178217,0.639541998 11.4178217,1.51271742 L11.4178217,2.9522769 L11.3653917,2.97587623 C11.3344104,2.9876759 11.172354,3.04667424 11.000765,3.10803251 C9.63996844,3.5847391 8.37211598,4.30451884 7.19959077,5.2650118 C6.83734721,5.56236343 5.95318694,6.43317892 5.66005563,6.78244909 C4.50182951,8.17009003 3.68916468,9.67808758 3.20776206,11.3300411 C2.91224757,12.3518923 2.76449033,13.251027 2.71920989,14.3460362 C2.70729398,14.6410279 2.69537807,16.9608426 2.69537807,19.502491 L2.69537807,24.120881 L7.05659989,24.120881 L11.4178217,24.120881 L11.4178217,25.5604405 L11.4178217,27 L5.71010244,27 L0,27 L0.00953272528,20.6942575 Z" id="Path"></path>
            <path d="M14.063153,25.5604405 L14.063153,24.120881 L18.4124589,24.120881 L22.7617648,24.120881 L22.7617648,19.1721003 C22.7617648,16.0475483 22.7522321,14.0982432 22.737933,13.890569 C22.4638671,10.1500743 20.5763875,6.79896862 17.5163827,4.62074993 C16.5893252,3.95996853 15.4549309,3.38178481 14.3467515,3.0018355 L14.0750689,2.90743816 L14.0679193,1.45371908 L14.063153,0 L14.115583,0.0141596014 C14.1465643,0.0212394022 14.3539011,0.0873175422 14.575537,0.160475483 C16.5583438,0.800017481 18.4911039,1.89974653 20.0711531,3.28502753 C20.4190975,3.58945896 21.0482574,4.20776156 21.3652205,4.55703173 C23.4814855,6.88628616 24.8518148,9.77956472 25.2974697,12.8639979 C25.4499933,13.9165283 25.4404606,13.394983 25.4476101,20.5172625 L25.4571429,27 L19.7589563,27 L14.063153,27 L14.063153,25.5604405 Z" id="Path"></path>
            <path d="M5.38122342,21.4612359 C5.35500843,21.4352766 5.36215797,14.3767153 5.38837296,14.0085657 C5.55042929,11.8209073 6.43935593,9.83620313 7.95029288,8.29044664 C8.71052772,7.51166856 9.48982802,6.94292457 10.4407174,6.47329779 C11.1342231,6.12874749 11.6561398,5.93759287 12.3830101,5.75823792 C12.8334314,5.6449611 12.85488,5.64732104 13.3601145,5.78419719 C16.2866611,6.5865746 18.624562,8.77659296 19.6111991,11.6368324 C19.8376013,12.2976138 19.978209,12.9159164 20.0616203,13.6474958 C20.0997513,13.9778865 20.1045176,14.3271567 20.1045176,17.7372607 L20.1045176,21.4659558 L12.7500201,21.4730356 C8.70576136,21.4753955 5.38837296,21.4706756 5.38122342,21.4612359 Z M13.3720304,18.2824054 C14.2824056,18.1313696 15.0188087,17.7419806 15.6575013,17.0741194 C16.8204938,15.8587536 17.0754942,14.0203654 16.2890443,12.5100079 C15.7361463,11.4456778 14.7137615,10.6834193 13.5197876,10.4427061 C11.7228689,10.0816362 9.89496884,10.9949305 9.11328537,12.646884 C8.42931233,14.0864435 8.67954637,15.8139149 9.74244523,16.9986015 C10.3978201,17.7301809 11.3224944,18.2021676 12.3138979,18.3154445 C12.5593656,18.3437637 13.1146468,18.3272441 13.3720304,18.2824054 Z" id="Shape"></path>
        </g>
        <text id="The-Institute-of-Ban" font-family="Minion3-Regular, Minion 3" font-size="16" font-weight="normal" line-spacing="16" letter-spacing="-0.2666666" fill="black">
            <tspan x="37.784" y="27">The Institute</tspan>
            <tspan x="37" y="43.08" font-family="Minion3-Italic, Minion 3" font-style="italic"> of </tspan>
            <tspan x="49.1066668" y="43"> Banking</tspan>
        </text>
    </g>
</svg>