<?xml version="1.0" encoding="UTF-8"?>
<svg width="268px" height="253px" viewBox="0 0 268 253" version="1.1" xmlns="http://www.w3.org/2000/svg" xmlns:xlink="http://www.w3.org/1999/xlink">
    <!-- Generator: Sketch 55.1 (78136) - https://sketchapp.com -->
    <title>Group</title>
    <desc>Created with Sketch 
    <defs>
  <style type="text/css">
    @import url('https://fonts.googleapis.com/css?family=Roboto:400,100,100italic,300,300italic,400italic,500,500italic,700,700italic,900,900italic');
 </style>
</defs>
    </desc>
    
    <g id="Employer-Portal" stroke="none" stroke-width="1" fill="none" fill-rule="evenodd">
        <g id="Artboard" transform="translate(-1052.000000, -182.000000)">
            <g id="Group" transform="translate(1052.000000, 182.000000)">
                <path d="M250.361224,89.2368999 C246.149796,76.50635 250.361224,59.6309699 242.430612,48.8651771 C234.5,38.0993844 216.779184,36.7805748 205.895102,29.0022895 C195.01102,21.2240043 188.338367,5.12914412 175.430612,1.01122839 C162.933061,-2.97211492 147.837551,6.09806546 134,6.09806546 C120.162449,6.09806546 105.066939,-2.97211492 92.5693878,1.01122839 C79.6616327,5.12914412 72.8795918,21.4931491 62.104898,29.0561185 C51.3302041,36.6190879 33.5,38.2339568 25.5967347,48.9459206 C17.6934694,59.6578843 21.877551,76.5332645 17.6387755,89.2368999 C13.6734694,101.536818 0,112.8409 0,126.459628 C0,140.078356 13.6734694,151.382438 17.6387755,163.682357 C21.8502041,176.412907 17.6387755,193.288287 25.5693878,204.054079 C33.5,214.819872 51.2208163,216.138682 62.104898,223.916967 C72.9889796,231.695252 79.6342857,247.843941 92.5693878,251.988772 C105.039592,255.972115 120.162449,246.901935 134,246.901935 C147.837551,246.901935 162.933061,255.972115 175.430612,251.988772 C188.365714,247.843941 195.147755,231.641423 205.895102,223.916967 C216.642449,216.192511 234.5,214.739129 242.430612,204.054079 C250.361224,193.36903 246.177143,176.466736 250.361224,163.682357 C254.326531,151.382438 268,140.078356 268,126.459628 C268,112.8409 254.326531,101.536818 250.361224,89.2368999 Z M133.5,229 C76.8908131,229 31,183.109187 31,126.5 C31,69.8908131 76.8908131,24 133.5,24 C190.109187,24 236,69.8908131 236,126.5 C236,153.68469 225.200924,179.755966 205.978445,198.978445 C186.755966,218.200924 160.68469,229 133.5,229 Z" id="Shape" fill="#315AA7" fill-rule="nonzero"></path>
                <text id="84%" style="font-family: 'Roboto';"  font-size="68" font-weight="bold" line-spacing="68" fill="#FFFFFF">
                    <tspan x="72.5" y="165">84%</tspan>
                </text>
                <text id="CPD-Q1" style="font-family: 'Roboto';" 
                  font-size="18" font-weight="normal" line-spacing="22" letter-spacing="3.4000001" fill="#FFFFFF">
                    <tspan x="94" y="88">CPD Q1</tspan>
                </text>
            </g>
        </g>
    </g>
</svg>