<?xml version="1.0" standalone="no"?>
<!DOCTYPE svg PUBLIC "-//W3C//DTD SVG 20010904//EN"
 "http://www.w3.org/TR/2001/REC-SVG-20010904/DTD/svg10.dtd">
<svg version="1.0" xmlns="http://www.w3.org/2000/svg"
 width="675.000000pt" height="675.000000pt" viewBox="0 0 675.000000 675.000000"
 preserveAspectRatio="xMidYMid meet">
<metadata>
Created by potrace 1.15, written by Peter Selinger 2001-2017
</metadata>
<g transform="translate(0.000000,675.000000) scale(0.100000,-0.100000)"
fill="#000000" stroke="none">
<path d="M300 3380 l0 -2531 993 4 c1070 4 1093 5 1372 64 728 152 1277 548
1581 1139 132 256 198 465 264 829 54 304 54 847 -1 1180 -11 63 -66 296 -88
370 -46 153 -140 354 -230 495 -324 507 -862 832 -1556 939 -247 39 -325 41
-1341 41 l-994 0 0 -2530z m1920 1415 c281 -35 459 -118 616 -288 49 -53 144
-185 144 -201 0 -2 13 -33 29 -68 42 -94 58 -145 87 -278 72 -333 60 -857 -26
-1180 -30 -115 -44 -150 -104 -272 -142 -285 -370 -448 -721 -515 -70 -13
-146 -17 -340 -18 l-250 0 -3 1395 c-1 767 0 1405 3 1418 5 22 6 22 223 22
136 0 265 -6 342 -15z"/>
</g>
</svg>
